<svg width="512" height="513" viewBox="0 0 512 513" fill="none" xmlns="http://www.w3.org/2000/svg">
<g clip-path="url(#clip0_4_7314)">
<path d="M256 512.581C397.385 512.581 512 397.966 512 256.581C512 115.196 397.385 0.581055 256 0.581055C114.615 0.581055 0 115.196 0 256.581C0 397.966 114.615 512.581 256 512.581Z" fill="#D80027"/>
<path d="M319.053 191.681L348.241 231.902L395.51 216.576L366.276 256.762L395.46 296.982L348.207 281.596L318.975 321.783L319.006 272.09L271.752 256.705L319.022 241.378L319.053 191.681Z" fill="#F0F0F0"/>
<path d="M239.398 357.265C183.876 357.265 138.865 312.254 138.865 256.733C138.865 201.211 183.876 156.2 239.398 156.2C256.709 156.2 272.997 160.579 287.218 168.284C264.909 146.465 234.398 133 200.731 133C132.395 133 77 188.397 77 256.731C77 325.066 132.397 380.463 200.731 380.463C234.401 380.463 264.91 366.997 287.218 345.179C272.997 352.887 256.709 357.265 239.398 357.265V357.265Z" fill="#F0F0F0"/>
</g>
<defs>
<clipPath id="clip0_4_7314">
<rect width="512" height="512" fill="white" transform="translate(0 0.581055)"/>
</clipPath>
</defs>
</svg>
